<svg width="13" height="13" viewBox="0 0 13 13" fill="none" xmlns="http://www.w3.org/2000/svg">
<g clip-path="url(#clip0)">
<path d="M6.62794 13.0005C6.5849 13.0005 6.54185 13.0005 6.49851 13.0003C5.47952 13.0027 4.53798 12.9768 3.62233 12.9211C2.78285 12.87 2.01657 12.5799 1.4062 12.0822C0.817261 11.602 0.415077 10.9526 0.210861 10.1524C0.0331269 9.45578 0.0237045 8.77192 0.014679 8.11048C0.00813292 7.63589 0.00138855 7.07353 0 6.50164C0.00138855 5.92738 0.00813292 5.36502 0.014679 4.89043C0.0237045 4.22908 0.0331269 3.54522 0.210861 2.84847C0.415077 2.04827 0.817261 1.39892 1.4062 0.91868C2.01657 0.420984 2.78285 0.130876 3.62243 0.0797975C4.53808 0.0241563 5.47981 -0.00182938 6.50099 0.000650175C7.52029 -0.00153183 8.46152 0.0241563 9.37717 0.0797975C10.2167 0.130876 10.9829 0.420984 11.5933 0.91868C12.1823 1.39892 12.5844 2.04827 12.7886 2.84847C12.9664 3.54512 12.9758 4.22908 12.9848 4.89043C12.9914 5.36502 12.9982 5.92738 12.9995 6.49926V6.50164C12.9982 7.07353 12.9914 7.63589 12.9848 8.11048C12.9758 8.77182 12.9665 9.45568 12.7886 10.1524C12.5844 10.9526 12.1823 11.602 11.5933 12.0822C10.9829 12.5799 10.2167 12.87 9.37717 12.9211C8.50031 12.9745 7.59953 13.0005 6.62794 13.0005V13.0005ZM6.49851 11.9846C7.50095 11.987 8.42136 11.9617 9.31548 11.9074C9.95025 11.8688 10.5006 11.6628 10.9515 11.2951C11.3683 10.9552 11.6553 10.4863 11.8046 9.90131C11.9525 9.32139 11.9611 8.69873 11.9693 8.09659C11.9757 7.62518 11.9825 7.06678 11.9839 6.50045C11.9825 5.93402 11.9757 5.37573 11.9693 4.90431C11.9611 4.30218 11.9525 3.67951 11.8046 3.0995C11.6553 2.51452 11.3683 2.04559 10.9515 1.70569C10.5006 1.33812 9.95025 1.13212 9.31548 1.09354C8.42136 1.03909 7.50095 1.01399 6.50089 1.01618C5.49866 1.0138 4.57815 1.03909 3.68402 1.09354C3.04926 1.13212 2.49889 1.33812 2.04801 1.70569C1.63125 2.04559 1.34422 2.51452 1.19495 3.0995C1.04697 3.67951 1.03844 4.30208 1.0302 4.90431C1.02376 5.37612 1.01701 5.93482 1.01562 6.50164C1.01701 7.06599 1.02376 7.62478 1.0302 8.09659C1.03844 8.69873 1.04697 9.32139 1.19495 9.90131C1.34422 10.4863 1.63125 10.9552 2.04801 11.2951C2.49889 11.6627 3.04926 11.8687 3.68402 11.9073C4.57815 11.9617 5.49886 11.9871 6.49851 11.9846V11.9846ZM6.47431 9.67428C4.72434 9.67428 3.30048 8.25052 3.30048 6.50045C3.30048 4.75038 4.72434 3.32662 6.47431 3.32662C8.22438 3.32662 9.64814 4.75038 9.64814 6.50045C9.64814 8.25052 8.22438 9.67428 6.47431 9.67428V9.67428ZM6.47431 4.34225C5.28432 4.34225 4.31611 5.31047 4.31611 6.50045C4.31611 7.69044 5.28432 8.65866 6.47431 8.65866C7.6644 8.65866 8.63251 7.69044 8.63251 6.50045C8.63251 5.31047 7.6644 4.34225 6.47431 4.34225V4.34225ZM10.0036 2.311C9.58298 2.311 9.24189 2.65199 9.24189 3.07272C9.24189 3.49345 9.58298 3.83444 10.0036 3.83444C10.4243 3.83444 10.7653 3.49345 10.7653 3.07272C10.7653 2.65199 10.4243 2.311 10.0036 2.311Z" fill="#2F3C80"/>
</g>
<defs>
<clipPath id="clip0">
<rect width="13" height="13" fill="white"/>
</clipPath>
</defs>
</svg>
